<?xml version="1.0" encoding="UTF-8"?>
<svg width="12px" height="12px" viewBox="0 0 12 12" version="1.1" xmlns="http://www.w3.org/2000/svg" xmlns:xlink="http://www.w3.org/1999/xlink">
    <!-- Generator: Sketch 53.1 (72631) - https://sketchapp.com -->
    <title>Shape</title>
    <desc>Created with Sketch.</desc>
    <g id="Page-1" stroke="none" stroke-width="1" fill="none" fill-rule="evenodd">
        <path d="M11.9671611,6.53771979 C11.8036634,4.95746105 11.0379239,3.41095249 9.81094093,2.18394571 C7.25572628,-0.369794979 3.46677872,-0.738047016 1.3653078,1.36569118 C-0.737663103,3.46870281 -0.370168188,7.25622376 2.18429646,9.81073789 C3.41127948,11.0377447 4.95775808,11.8034989 6.53798622,11.9669998 C6.7487333,11.9887499 6.95648043,12 7.16122759,12 C8.52020879,12 9.73519197,11.5237474 10.6299296,10.6289924 C11.6589154,9.60073673 12.1344088,8.14722869 11.9671611,6.53771979 Z M8.22771283,7.83447696 C7.39072442,7.19547343 6.48323697,6.94272203 5.49775061,6.67272053 C3.01678494,5.99246677 1.78455199,3.92245532 1.49655598,1.49621534 C2.19554631,2.33922 2.71153917,3.30222533 3.56952729,4.00797923 C4.48376464,4.75948339 5.49025072,5.0332349 6.59573542,5.35348668 C9.02270183,6.05774057 10.2234352,8.10975192 10.4994314,10.4985151 C9.74194188,9.5880101 9.18619957,8.56648101 8.22771283,7.83447696 Z" id="Shape" fill="#F54451" fill-rule="nonzero"></path>
    </g>
</svg>