<?xml version="1.0" encoding="UTF-8"?>
<svg width="17px" height="17px" viewBox="0 0 17 17" version="1.1" xmlns="http://www.w3.org/2000/svg" xmlns:xlink="http://www.w3.org/1999/xlink">
    <!-- Generator: Sketch 53.2 (72643) - https://sketchapp.com -->
    <title>error</title>
    <desc>Created with Sketch.</desc>
    <g id="Page-1" stroke="none" stroke-width="1" fill="none" fill-rule="evenodd">
        <g id="A2" transform="translate(-1890.000000, -868.000000)" fill="#C92935" fill-rule="nonzero">
            <path d="M1898.5,868 C1893.80588,868 1890,871.805875 1890,876.5 C1890,881.194125 1893.80588,885 1898.5,885 C1903.19412,885 1907,881.194125 1907,876.5 C1907,871.805875 1903.19412,868 1898.5,868 Z M1898.5,881.925833 C1897.83558,881.925833 1897.38083,881.413708 1897.38083,880.75 C1897.38083,880.067167 1897.85471,879.574167 1898.5,879.574167 C1899.18213,879.574167 1899.61917,880.067167 1899.61917,880.75 C1899.61917,881.414417 1899.18213,881.925833 1898.5,881.925833 Z M1898.94058,877.435708 C1898.77129,878.013 1898.23792,878.022917 1898.06012,877.435708 C1897.85542,876.758542 1897.12796,874.188 1897.12796,872.518458 C1897.12796,870.315542 1899.88408,870.304917 1899.88408,872.518458 C1899.88337,874.197917 1899.11696,876.835042 1898.94058,877.435708 Z" id="error"></path>
        </g>
    </g>
</svg>