<?xml version="1.0" encoding="UTF-8"?>
<svg width="24px" height="24px" viewBox="0 0 24 24" version="1.1" xmlns="http://www.w3.org/2000/svg" xmlns:xlink="http://www.w3.org/1999/xlink">
    <!-- Generator: Sketch 53.2 (72643) - https://sketchapp.com -->
    <title>error</title>
    <desc>Created with Sketch.</desc>
    <g id="Page-1" stroke="none" stroke-width="1" fill="none" fill-rule="evenodd">
        <g id="A2" transform="translate(-1883.000000, -861.000000)" fill="#C92935" fill-rule="nonzero">
            <path d="M1895,861 C1888.373,861 1883,866.373 1883,873 C1883,879.627 1888.373,885 1895,885 C1901.627,885 1907,879.627 1907,873 C1907,866.373 1901.627,861 1895,861 Z M1895,880.66 C1894.062,880.66 1893.42,879.937 1893.42,879 C1893.42,878.036 1894.089,877.34 1895,877.34 C1895.963,877.34 1896.58,878.036 1896.58,879 C1896.58,879.938 1895.963,880.66 1895,880.66 Z M1895.622,874.321 C1895.383,875.136 1894.63,875.15 1894.379,874.321 C1894.09,873.365 1893.063,869.736 1893.063,867.379 C1893.063,864.269 1896.954,864.254 1896.954,867.379 C1896.953,869.75 1895.871,873.473 1895.622,874.321 Z" id="error"></path>
        </g>
    </g>
</svg>