<?xml version="1.0" encoding="UTF-8"?>
<svg width="44px" height="44px" viewBox="0 0 44 44" version="1.1" xmlns="http://www.w3.org/2000/svg" xmlns:xlink="http://www.w3.org/1999/xlink">
    <!-- Generator: Sketch 53.2 (72643) - https://sketchapp.com -->
    <title>general</title>
    <desc>Created with Sketch.</desc>
    <defs>
        <filter x="-6.0%" y="-6.0%" width="111.9%" height="111.9%" filterUnits="objectBoundingBox" id="filter-1">
            <feOffset dx="0" dy="0" in="SourceAlpha" result="shadowOffsetOuter1"></feOffset>
            <feGaussianBlur stdDeviation="0.5" in="shadowOffsetOuter1" result="shadowBlurOuter1"></feGaussianBlur>
            <feColorMatrix values="0 0 0 0 0   0 0 0 0 0   0 0 0 0 0  0 0 0 0.5 0" type="matrix" in="shadowBlurOuter1" result="shadowMatrixOuter1"></feColorMatrix>
            <feMerge>
                <feMergeNode in="shadowMatrixOuter1"></feMergeNode>
                <feMergeNode in="SourceGraphic"></feMergeNode>
            </feMerge>
        </filter>
    </defs>
    <g id="Page-1" stroke="none" stroke-width="1" fill="none" fill-rule="evenodd">
        <g id="Letter" transform="translate(-733.000000, -943.000000)">
            <g id="general" filter="url(#filter-1)" transform="translate(734.000000, 944.000000)">
                <circle id="Oval" fill="#8EE1DC" cx="21" cy="21" r="21"></circle>
                <g id="Group-2" transform="translate(11.529412, 9.717647)">
                    <path d="M29.0705882,18.4882353 L14.5764706,5.76470588 C15.5647059,7.24705882 16.0588235,8.1254902 16.0588235,8.4 C16.0588235,8.57828494 15.3853975,10.410974 16.0588235,13.5882353 C16.2252741,14.3735586 16.9268952,16.0175923 17.6180286,17.7058824 C17.8280165,18.2188375 18.2644047,18.9463033 18.9271933,19.8882797 L3.04705882,19.8882797 L16.8,31.1294118 C19.8919098,29.7453855 22.444851,28.0159737 24.4588235,25.9411765 C26.4727961,23.8663792 28.010051,21.3820655 29.0705882,18.4882353 Z" id="Oval" fill-opacity="0.38" fill="#60B4AF"></path>
                    <path d="M18.8596294,19.1713266 L17.2338377,16.4608442 C16.4843526,15.2097943 16.08783,13.7778414 16.08783,12.3184089 L16.08783,9.94411765 C16.08783,6.28943244 13.1154404,3.31472068 9.46360816,3.31472068 C5.81177596,3.31472068 2.83938637,6.28943244 2.83938637,9.94411765 L2.83938637,12.3184089 C2.83938637,13.7778414 2.44286371,15.2097943 1.69337866,16.4608442 L0.0675869488,19.1713266 C-0.0204207657,19.3171588 -0.022328191,19.4999708 0.0609774985,19.6477119 C0.145214721,19.7963854 0.303220507,19.8882797 0.473558019,19.8882797 L18.4536139,19.8882797 C18.6239515,19.8882797 18.7820016,19.7964298 18.8661945,19.6477119 C18.9495002,19.4999264 18.9476371,19.3171588 18.8596294,19.1713266 Z M1.30918772,18.9411913 L2.50438926,16.9476176 C3.34281356,15.5497588 3.7856911,13.9492442 3.7856911,12.3184089 L3.7856911,9.94411765 C3.7856911,6.8103 6.3322369,4.26176471 9.46360816,4.26176471 C12.5949794,4.26176471 15.1415252,6.8103 15.1415252,9.94411765 L15.1415252,12.3184089 C15.1415252,13.9492442 15.5844028,15.5497588 16.4218955,16.9476176 L17.6180286,18.9411913 L1.30918772,18.9411913 Z" id="Shape" fill="#FFFFFF" fill-rule="nonzero"></path>
                    <path d="M9.46360816,0 C8.41980296,0 7.57095435,0.849511765 7.57095435,1.89413244 L7.57095435,3.78826489 C7.57095435,4.04960873 7.78294471,4.26176471 8.0441289,4.26176471 C8.30531308,4.26176471 8.51730344,4.04960873 8.51730344,3.7882205 L8.51730344,1.89413244 C8.51730344,1.37135597 8.94123979,0.947088419 9.46360816,0.947088419 C9.98597653,0.947088419 10.4099129,1.37135597 10.4099129,1.89413244 L10.4099129,3.78826489 C10.4099129,4.04960873 10.6219032,4.26176471 10.8830874,4.26176471 C11.1442716,4.26176471 11.356262,4.04960873 11.356262,3.7882205 L11.356262,1.89413244 C11.356262,0.849511765 10.5074134,0 9.46360816,0 Z" id="Path" fill="#FFFFFF" fill-rule="nonzero"></path>
                    <path d="M11.5114288,19.1751 C11.3779977,18.9497148 11.0893555,18.8758442 10.8632147,19.0055617 C10.6370296,19.1381647 10.5613536,19.428897 10.6938087,19.6542822 C10.8168155,19.863597 10.884019,20.1145528 10.884019,20.3617351 C10.884019,21.1449676 10.2471607,21.7823233 9.4645397,21.7823233 C8.68191867,21.7823233 8.04506043,21.1449676 8.04506043,20.3617351 C8.04506043,20.1145528 8.1122639,19.863597 8.23527065,19.6542822 C8.36679428,19.4279203 8.29111829,19.1381203 8.06586467,19.0055617 C7.83781646,18.8757998 7.55010575,18.9496704 7.41765059,19.1751 C7.2084992,19.5330882 7.09777981,19.9431499 7.09777981,20.3617795 C7.09782417,21.667744 8.15861877,22.7294118 9.46360816,22.7294118 C10.7685976,22.7294118 11.8293922,21.667744 11.8312996,20.3617795 C11.8312996,19.9431499 11.7205802,19.5330882 11.5114288,19.1751 Z" id="Path" fill="#FFFFFF" fill-rule="nonzero"></path>
                </g>
            </g>
        </g>
    </g>
</svg>