<?xml version="1.0" encoding="UTF-8"?>
<svg width="38px" height="38px" viewBox="0 0 38 38" version="1.1" xmlns="http://www.w3.org/2000/svg" xmlns:xlink="http://www.w3.org/1999/xlink">
    <!-- Generator: Sketch 53.2 (72643) - https://sketchapp.com -->
    <title>general</title>
    <desc>Created with Sketch.</desc>
    <defs>
        <filter x="-6.9%" y="-6.9%" width="113.9%" height="113.9%" filterUnits="objectBoundingBox" id="filter-1">
            <feOffset dx="0" dy="0" in="SourceAlpha" result="shadowOffsetOuter1"></feOffset>
            <feGaussianBlur stdDeviation="0.5" in="shadowOffsetOuter1" result="shadowBlurOuter1"></feGaussianBlur>
            <feColorMatrix values="0 0 0 0 0   0 0 0 0 0   0 0 0 0 0  0 0 0 0.5 0" type="matrix" in="shadowBlurOuter1" result="shadowMatrixOuter1"></feColorMatrix>
            <feMerge>
                <feMergeNode in="shadowMatrixOuter1"></feMergeNode>
                <feMergeNode in="SourceGraphic"></feMergeNode>
            </feMerge>
        </filter>
    </defs>
    <g id="Page-1" stroke="none" stroke-width="1" fill="none" fill-rule="evenodd">
        <g id="Letter" transform="translate(-739.000000, -949.000000)">
            <g id="general" filter="url(#filter-1)" transform="translate(740.000000, 950.000000)">
                <circle id="Oval" fill="#8EE1DC" cx="18" cy="18" r="18"></circle>
                <g id="Group-2" transform="translate(9.882353, 8.329412)">
                    <path d="M24.9176471,15.8470588 L12.4941176,4.94117647 C13.3411765,6.21176471 13.7647059,6.96470588 13.7647059,7.2 C13.7647059,7.35281567 13.1874836,8.92369196 13.7647059,11.6470588 C13.9073778,12.3201931 14.5087673,13.7293648 15.1011674,15.1764706 C15.281157,15.6161464 15.655204,16.2396885 16.2233086,17.0470969 L2.61176471,17.0470969 L14.4,26.6823529 C17.0502084,25.4960447 19.2384437,24.0136918 20.9647059,22.2352941 C22.6909681,20.4568965 24.0086151,18.3274847 24.9176471,15.8470588 Z" id="Oval" fill-opacity="0.38" fill="#60B4AF"></path>
                    <path d="M16.1653966,16.4325656 L14.7718609,14.109295 C14.1294451,13.0369665 13.7895685,11.8095783 13.7895685,10.5586362 L13.7895685,8.52352941 C13.7895685,5.3909421 11.241806,2.84118915 8.11166414,2.84118915 C4.98152225,2.84118915 2.43375975,5.3909421 2.43375975,8.52352941 L2.43375975,10.5586362 C2.43375975,11.8095783 2.09388318,13.0369665 1.45146742,14.109295 L0.0579316704,16.4325656 C-0.0175035135,16.5575647 -0.0191384494,16.7142607 0.0522664273,16.840896 C0.124469761,16.9683303 0.259903292,17.0470969 0.405906874,17.0470969 L15.8173834,17.0470969 C15.963387,17.0470969 16.0988585,16.9683684 16.1710238,16.840896 C16.2424287,16.7142226 16.2408318,16.5575647 16.1653966,16.4325656 Z M1.1221609,16.2353068 L2.14661937,14.5265294 C2.86526877,13.3283647 3.24487808,11.956495 3.24487808,10.5586362 L3.24487808,8.52352941 C3.24487808,5.8374 5.42763163,3.65294118 8.11166414,3.65294118 C10.7956967,3.65294118 12.9784502,5.8374 12.9784502,8.52352941 L12.9784502,10.5586362 C12.9784502,11.956495 13.3580595,13.3283647 14.0759105,14.5265294 L15.1011674,16.2353068 L1.1221609,16.2353068 Z" id="Shape" fill="#FFFFFF" fill-rule="nonzero"></path>
                    <path d="M8.11166414,0 C7.21697396,0 6.48938945,0.728152941 6.48938945,1.6235421 L6.48938945,3.24708419 C6.48938945,3.4710932 6.67109547,3.65294118 6.89496763,3.65294118 C7.11883978,3.65294118 7.3005458,3.4710932 7.3005458,3.24704614 L7.3005458,1.6235421 C7.3005458,1.17544798 7.66391982,0.811790074 8.11166414,0.811790074 C8.55940846,0.811790074 8.92278248,1.17544798 8.92278248,1.6235421 L8.92278248,3.24708419 C8.92278248,3.4710932 9.1044885,3.65294118 9.32836066,3.65294118 C9.55223281,3.65294118 9.73393883,3.4710932 9.73393883,3.24704614 L9.73393883,1.6235421 C9.73393883,0.728152941 9.00635432,0 8.11166414,0 Z" id="Path" fill="#FFFFFF" fill-rule="nonzero"></path>
                    <path d="M9.86693897,16.4358 C9.7525695,16.2426127 9.50516187,16.179295 9.3113269,16.2904814 C9.11745392,16.4041412 9.05258879,16.6533403 9.16612178,16.8465276 C9.27155614,17.0259403 9.32915911,17.2410452 9.32915911,17.4529158 C9.32915911,18.1242579 8.78328062,18.6705629 8.1124626,18.6705629 C7.44164458,18.6705629 6.89576608,18.1242579 6.89576608,17.4529158 C6.89576608,17.2410452 6.95336906,17.0259403 7.05880342,16.8465276 C7.17153795,16.6525031 7.10667282,16.4041031 6.91359829,16.2904814 C6.71812839,16.179257 6.47151922,16.2425746 6.35798622,16.4358 C6.1787136,16.7426471 6.08381127,17.0941285 6.08381127,17.4529539 C6.08384929,18.572352 6.9931018,19.4823529 8.11166414,19.4823529 C9.23022648,19.4823529 10.139479,18.572352 10.1411139,17.4529539 C10.1411139,17.0941285 10.0462116,16.7426471 9.86693897,16.4358 Z" id="Path" fill="#FFFFFF" fill-rule="nonzero"></path>
                </g>
            </g>
        </g>
    </g>
</svg>