<?xml version="1.0" encoding="UTF-8"?>
<svg width="27px" height="25px" viewBox="0 0 27 25" version="1.1" xmlns="http://www.w3.org/2000/svg" xmlns:xlink="http://www.w3.org/1999/xlink">
    <!-- Generator: Sketch 53.2 (72643) - https://sketchapp.com -->
    <title>happening log 2</title>
    <desc>Created with Sketch.</desc>
    <g id="Page-1" stroke="none" stroke-width="1" fill="none" fill-rule="evenodd">
        <g id="background-test" transform="translate(-587.000000, -557.000000)">
            <g id="happening-log-2" transform="translate(579.000000, 542.000000)">
                <g id="happening-log">
                    <g id="Group" transform="translate(12.792600, 13.740200)">
                        <polygon id="Triangle" fill="#F9BE02" transform="translate(14.736039, 4.618828) rotate(37.000000) translate(-14.736039, -4.618828) " points="14.7574423 1.36586575 18.1092064 7.84959913 11.3628716 7.87178928"></polygon>
                        <polygon id="Triangle" fill="#F54451" transform="translate(8.220722, 8.290487) rotate(25.000000) translate(-8.220722, -8.290487) " points="8.23702643 5.1862349 11.2867355 11.3786859 5.1547092 11.3947392"></polygon>
                        <polygon id="Triangle" fill="#FAC930" transform="translate(11.251556, 8.129926) rotate(-27.000000) translate(-11.251556, -8.129926) " points="11.2343377 5.02486317 14.3169932 11.2349884 8.18611959 11.2180346"></polygon>
                        <polygon id="Triangle" fill="#F54451" transform="translate(4.760347, 4.908381) rotate(-39.000000) translate(-4.760347, -4.908381) " points="4.73952879 1.79758935 8.30015626 8.01917316 1.2205381 7.99547222"></polygon>
                        <path d="M8.37404401,17.8102181 C8.36198812,17.8102582 8.35012907,17.8086504 8.33846836,17.8049457 C8.28914793,17.7896864 8.26556381,17.7461909 8.28559259,17.7079411 C8.69893021,16.9032226 8.37641064,15.6027682 8.09222682,14.4558179 C7.85448986,13.4976832 7.64923309,12.6700125 7.92791214,12.3076188 C7.95539513,12.2720396 8.01456424,12.260463 8.05927303,12.2814276 C8.10455492,12.3026899 8.11913749,12.3484614 8.09184537,12.3841897 C7.85160383,12.6968923 8.06007243,13.5369807 8.28043307,14.4262935 C8.56971497,15.5938907 8.8980921,16.9167864 8.46337569,17.7629037 C8.44796951,17.7921538 8.41193394,17.8100923 8.37404401,17.8102181 Z" id="Path" fill="#406A80" fill-rule="nonzero" transform="translate(8.233762, 15.040606) rotate(38.000000) translate(-8.233762, -15.040606) "></path>
                        <path d="M11.9422393,17.38253 C11.9301834,17.3824899 11.9183134,17.3808034 11.9066278,17.3770211 C11.8572048,17.361434 11.8333308,17.3177809 11.8531056,17.2796633 C12.2610993,16.477672 11.9299218,15.1750469 11.6381021,14.0261841 C11.3939862,13.0664494 11.1832192,12.2373972 11.4594937,11.8768463 C11.4867406,11.8414488 11.545834,11.8302649 11.5906833,11.8515269 C11.6361076,11.8730904 11.650995,11.9189597 11.6239399,11.9545076 C11.3857732,12.2656216 11.5998348,13.107113 11.8261161,13.9979089 C12.1231714,15.167453 12.4603558,16.4925588 12.0312582,17.3358077 C12.0160463,17.3649562 11.9801293,17.3826558 11.9422393,17.38253 Z" id="Path" fill="#406A80" fill-rule="nonzero" transform="translate(11.781821, 14.611649) rotate(-38.000000) translate(-11.781821, -14.611649) "></path>
                        <path d="M10.2180944,12.525286 C10.2180944,12.7223147 10.0456509,12.906386 9.83437491,12.906386 C9.62378964,12.906386 9.4506554,12.7223147 9.4506554,12.525286 C9.4506554,12.3286384 9.62378964,12.144186 9.83437491,12.144186 C10.0456509,12.144186 10.2180944,12.3286384 10.2180944,12.525286 Z" id="Path" fill="#CC584C" fill-rule="nonzero"></path>
                    </g>
                    <text id="HAPPENING" transform="translate(22.426900, 39.461539) rotate(30.000000) translate(-22.426900, -39.461539) " font-family="Oswald-ExtraLight, Oswald" font-size="3.79039996" font-weight="300" letter-spacing="1.94257998" fill="#FFFFFF">
                        <tspan x="6.85025111" y="41.4615388">HAPPENIN</tspan>
                        <tspan x="36.0704445" y="41.4615388">G</tspan>
                    </text>
                </g>
            </g>
        </g>
    </g>
</svg>