<?xml version="1.0" encoding="UTF-8"?>
<svg width="158px" height="36px" viewBox="0 0 158 36" version="1.1" xmlns="http://www.w3.org/2000/svg" xmlns:xlink="http://www.w3.org/1999/xlink">
    <!-- Generator: Sketch 53.2 (72643) - https://sketchapp.com -->
    <title>happeninglogo</title>
    <desc>Created with Sketch.</desc>
    <g id="Page-1" stroke="none" stroke-width="1" fill="none" fill-rule="evenodd">
        <g id="background-test" transform="translate(-108.000000, -885.000000)">
            <g id="happeninglogo" transform="translate(106.000000, 882.000000)">
                <g id="Group" transform="translate(130.000000, 0.000000)">
                    <polygon id="Triangle" fill="#75DBD5" transform="translate(26.272997, 8.487592) rotate(37.000000) translate(-26.272997, -8.487592) " points="26.1690222 2.58677491 32.3319059 14.3884098 20.214089 14.2806119"></polygon>
                    <polygon id="Triangle" fill="#F54451" transform="translate(14.674694, 15.167342) rotate(25.000000) translate(-14.674694, -15.167342) " points="14.5954904 9.51413827 20.1562916 20.8205454 9.19309716 20.74256"></polygon>
                    <polygon id="Triangle" fill="#60B4AF" transform="translate(19.980023, 14.877775) rotate(-27.000000) translate(-19.980023, -14.877775) " points="20.0636701 9.2263216 25.46442 20.446869 14.4956261 20.5292292"></polygon>
                    <polygon id="Triangle" fill="#F54451" transform="translate(8.430036, 9.017404) rotate(-39.000000) translate(-8.430036, -9.017404) " points="8.53117014 3.3773939 14.7937274 14.5422764 2.0663448 14.6574136"></polygon>
                    <path d="M14.9692382,32.4623479 C14.9475741,32.4621534 14.9262272,32.458984 14.9051903,32.4520274 C14.8162213,32.4233456 14.7728768,32.3441799 14.8080228,32.2754644 C15.5329986,30.8296129 14.9246303,28.4711403 14.3885509,26.3910651 C13.9401181,24.6534127 13.5529416,23.1523694 14.04572,22.5032989 C14.0943207,22.4395768 14.2003943,22.4199551 14.2812022,22.4588506 C14.3630466,22.4982968 14.3902653,22.5813784 14.3420109,22.6453742 C13.9172066,23.2054499 14.3104298,24.7290165 14.7261132,26.3418483 C15.2718111,28.4593678 15.8912024,30.8585458 15.1287243,32.3787766 C15.1016861,32.4313223 15.0373255,32.4629591 14.9692382,32.4623479 Z" id="Path" fill="#406A80" fill-rule="nonzero" transform="translate(14.650212, 27.450626) rotate(38.000000) translate(-14.650212, -27.450626) "></path>
                    <path d="M21.1950315,31.6745267 C21.1733674,31.6747212 21.1520737,31.6719345 21.1311578,31.6653545 C21.0426873,31.6382656 21.0007508,31.5598654 21.0371308,31.4905078 C21.788067,30.0314076 21.221758,27.6834797 20.7227732,25.6126958 C20.3053285,23.8828161 19.9449205,22.3884835 20.4493799,21.7304612 C20.4991274,21.6658563 20.6055687,21.6443269 20.6856944,21.6817777 C20.7668468,21.7197608 20.7925848,21.802367 20.7431787,21.8672395 C20.3082952,22.4350323 20.6743482,23.9517831 21.0612694,25.5574103 C21.5692049,27.6654717 22.1458111,30.0539137 21.356037,31.5880785 C21.3280552,31.6411181 21.2631188,31.6739155 21.1950315,31.6745267 Z" id="Path" fill="#406A80" fill-rule="nonzero" transform="translate(20.973825, 26.668967) rotate(-38.000000) translate(-20.973825, -26.668967) "></path>
                    <path d="M18.185708,22.863402 C18.185708,23.2230541 17.8788007,23.5590541 17.5027811,23.5590541 C17.1279909,23.5590541 16.8198543,23.2230541 16.8198543,22.863402 C16.8198543,22.5044455 17.1279909,22.1677498 17.5027811,22.1677498 C17.8788007,22.1677498 18.185708,22.5044455 18.185708,22.863402 Z" id="Path" fill="#CC584C" fill-rule="nonzero"></path>
                </g>
                <text id="HAPPENING" font-family="Oswald-ExtraLight, Oswald" font-size="30" font-weight="300" letter-spacing="2.64897227" fill="#FFFFFF">
                    <tspan x="0.294624772" y="38">HAPPENING</tspan>
                </text>
            </g>
        </g>
    </g>
</svg>