<?xml version="1.0" encoding="UTF-8"?>
<svg width="19px" height="14px" viewBox="0 0 19 14" version="1.1" xmlns="http://www.w3.org/2000/svg" xmlns:xlink="http://www.w3.org/1999/xlink">
    <!-- Generator: Sketch 53.2 (72643) - https://sketchapp.com -->
    <title>Group 2</title>
    <desc>Created with Sketch.</desc>
    <g id="Page-1" stroke="none" stroke-width="1" fill="none" fill-rule="evenodd">
        <g id="Artboard" transform="translate(-598.000000, -655.000000)" fill-rule="nonzero" stroke="#F54451">
            <g id="Group-2" transform="translate(599.000000, 656.000000)">
                <g id="Group" transform="translate(2.812500, 5.944957)" fill="#F54451">
                    <path d="M11.3113125,3.67956522 C11.242125,3.67956522 11.1729375,3.65413043 11.1189375,3.60269565 L7.8823125,0.551652174 C7.76925,0.445391304 7.763625,0.266217391 7.8699375,0.152608696 C7.97625,0.0378695652 8.1534375,0.0327826087 8.267625,0.140173913 L11.50425,3.19121739 C11.6173125,3.29747826 11.6229375,3.47665217 11.516625,3.59026087 C11.4609375,3.6496087 11.3866875,3.67956522 11.3113125,3.67956522 Z" id="Path"></path>
                    <path d="M0.507375,3.67956522 C0.4325625,3.67956522 0.35775,3.6496087 0.3020625,3.59026087 C0.19575,3.47665217 0.201375,3.29747826 0.3144375,3.19121739 L3.5521875,0.140173913 C3.6658125,0.0339130435 3.844125,0.0384347826 3.949875,0.152608696 C4.0561875,0.266217391 4.0505625,0.445391304 3.9375,0.551652174 L0.69975,3.60269565 C0.64575,3.65413043 0.5765625,3.67956522 0.507375,3.67956522 Z" id="Path"></path>
                </g>
                <path d="M16.038,12.4613478 L1.40625,12.4613478 C0.631125,12.4613478 3.12638804e-13,11.8277391 3.12638804e-13,11.0483043 L3.12638804e-13,1.41304348 C3.12638804e-13,0.633608696 0.631125,1.24344979e-14 1.40625,1.24344979e-14 L16.038,1.24344979e-14 C16.813125,1.24344979e-14 17.44425,0.633608696 17.44425,1.41304348 L17.44425,11.0483043 C17.44425,11.8277391 16.813125,12.4613478 16.038,12.4613478 Z M1.40625,0.565217391 C0.9410625,0.565217391 0.5625,0.945608696 0.5625,1.41304348 L0.5625,11.0483043 C0.5625,11.5157391 0.9410625,11.8961304 1.40625,11.8961304 L16.038,11.8961304 C16.5031875,11.8961304 16.88175,11.5157391 16.88175,11.0483043 L16.88175,1.41304348 C16.88175,0.945608696 16.5031875,0.565217391 16.038,0.565217391 L1.40625,0.565217391 Z" id="Shape" fill="#F54451"></path>
                <path d="M8.722125,7.65078261 C8.3480625,7.65078261 7.974,7.52586957 7.689375,7.2766087 L0.466875,0.945608696 C0.349875,0.843304348 0.3375,0.664695652 0.4393125,0.546565217 C0.54225,0.429 0.7194375,0.41826087 0.8364375,0.519434783 L8.0589375,6.84986957 C8.418375,7.16469565 9.025875,7.16469565 9.38475,6.84986957 L16.59825,0.529608696 C16.7146875,0.427304348 16.891875,0.438608696 16.995375,0.55673913 C17.0971875,0.674869565 17.085375,0.852913043 16.968375,0.955782609 L9.754875,7.27604348 C9.4696875,7.52586957 9.0961875,7.65078261 8.722125,7.65078261 Z" id="Path"></path>
            </g>
        </g>
    </g>
</svg>