<?xml version="1.0" encoding="UTF-8"?>
<svg width="19px" height="14px" viewBox="0 0 19 14" version="1.1" xmlns="http://www.w3.org/2000/svg" xmlns:xlink="http://www.w3.org/1999/xlink">
    <!-- Generator: Sketch 53.2 (72643) - https://sketchapp.com -->
    <title>Group 3</title>
    <desc>Created with Sketch.</desc>
    <g id="Page-1" stroke="none" stroke-width="1" fill="none" fill-rule="evenodd">
        <g id="Artboard" transform="translate(-598.000000, -655.000000)">
            <g id="Group-3" transform="translate(599.000000, 656.000000)">
                <g id="Group-2">
                    <g id="Group" transform="translate(9.812500, 5.944957)"></g>
                    <path d="M1.40625,0.565217391 C0.9410625,0.565217391 0.5625,0.945608696 0.5625,1.41304348 L0.5625,11.0483043 C0.5625,11.5157391 0.9410625,11.8961304 1.40625,11.8961304 L16.038,11.8961304 C16.5031875,11.8961304 16.88175,11.5157391 16.88175,11.0483043 L16.88175,1.41304348 C16.88175,0.945608696 16.5031875,0.565217391 16.038,0.565217391 L1.40625,0.565217391 Z" id="Shape" stroke="#F54451" fill="#F54451" fill-rule="nonzero"></path>
                    <path d="M16.038,12.4613478 L1.40625,12.4613478 C0.631125,12.4613478 0,11.8277391 0,11.0483043 L0,1.41304348 C0,0.633608696 0.631125,0 1.40625,0 L16.038,0 C16.813125,0 17.44425,0.633608696 17.44425,1.41304348 L17.44425,11.0483043 C17.44425,11.8277391 16.813125,12.4613478 16.038,12.4613478 Z" id="Path" stroke="#F54451" fill="#F54451" fill-rule="nonzero"></path>
                    <path d="M8.722125,7.65078261 C8.3480625,7.65078261 7.974,7.52586957 7.689375,7.2766087 L0.466875,0.945608696 C0.349875,0.843304348 0.3375,0.664695652 0.4393125,0.546565217 C0.54225,0.429 0.7194375,0.41826087 0.8364375,0.519434783 L8.0589375,6.84986957 C8.418375,7.16469565 9.025875,7.16469565 9.38475,6.84986957 L16.59825,0.529608696 C16.7146875,0.427304348 16.891875,0.438608696 16.995375,0.55673913 C17.0971875,0.674869565 17.085375,0.852913043 16.968375,0.955782609 L9.754875,7.27604348 C9.4696875,7.52586957 9.0961875,7.65078261 8.722125,7.65078261 Z" id="Path" stroke="#FFFFFF" fill-rule="nonzero"></path>
                </g>
                <path d="M3.319875,9.62452174 C3.2450625,9.62452174 3.17025,9.59456522 3.1145625,9.53521739 C3.00825,9.4216087 3.013875,9.24243478 3.1269375,9.13617391 L6.3646875,6.08513043 C6.4783125,5.97886957 6.656625,5.9833913 6.762375,6.09756522 C6.8686875,6.21117391 6.8630625,6.39034783 6.75,6.4966087 L3.51225,9.54765217 C3.45825,9.59908696 3.3890625,9.62452174 3.319875,9.62452174 Z" id="Path" stroke="#FFFFFF" fill-rule="nonzero"></path>
                <path d="M14.1238125,9.62452174 C14.054625,9.62452174 13.9854375,9.59908696 13.9314375,9.54765217 L10.6948125,6.4966087 C10.58175,6.39034783 10.576125,6.21117391 10.6824375,6.09756522 C10.78875,5.98282609 10.9659375,5.97773913 11.080125,6.08513043 L14.31675,9.13617391 C14.4298125,9.24243478 14.4354375,9.4216087 14.329125,9.53521739 C14.2734375,9.59456522 14.1991875,9.62452174 14.1238125,9.62452174 Z" id="Path" stroke="#FFFFFF" fill-rule="nonzero"></path>
            </g>
        </g>
    </g>
</svg>