<?xml version="1.0" encoding="UTF-8"?>
<svg width="28px" height="31px" viewBox="0 0 28 31" version="1.1" xmlns="http://www.w3.org/2000/svg" xmlns:xlink="http://www.w3.org/1999/xlink">
    <!-- Generator: Sketch 53.2 (72643) - https://sketchapp.com -->
    <title>phone</title>
    <desc>Created with Sketch.</desc>
    <g id="Page-1" stroke="none" stroke-width="1" fill="none" fill-rule="evenodd">
        <g id="phone" transform="translate(1.000000, 1.000000)" fill-rule="nonzero">
            <rect id="Rectangle" stroke="#8EE1DC" stroke-width="0.513174" fill="#8EE1DC" x="0" y="0" width="26" height="29" rx="0.827699993"></rect>
            <path d="M20.9676684,18.6263806 C21.0015199,18.886173 20.922487,19.1120554 20.7309016,19.3040277 L18.4816166,21.5401799 C18.3801451,21.6531211 18.247696,21.7492042 18.0842142,21.8281799 C17.9207323,21.9072664 17.7600967,21.95809 17.6023074,21.9806505 C17.5910328,21.9806505 17.5571261,21.9835571 17.5007254,21.9892042 C17.4444352,21.9948235 17.3711503,21.9977024 17.2809534,21.9977024 C17.0666805,21.9977024 16.7199585,21.9609965 16.2407876,21.8875571 C15.7616166,21.8141176 15.1753644,21.6333841 14.4820311,21.3454394 C13.788532,21.0574394 13.0021554,20.6253841 12.1227634,20.0494394 C11.2433713,19.4735225 10.3075509,18.6828789 9.31538515,17.6776747 C8.52616235,16.8983806 7.87223489,16.1529689 7.35360276,15.4414671 C6.83497064,14.72991 6.41781002,14.0720277 6.1021209,13.4677924 C5.78640415,12.8635571 5.54963731,12.3157924 5.39179275,11.8244983 C5.23394819,11.3332042 5.12683938,10.9096747 5.07046632,10.55391 C5.01409326,10.1981453 4.99154404,9.91861592 5.00281865,9.7153218 C5.01409326,9.51202768 5.01973057,9.39908651 5.01973057,9.37649827 C5.04227979,9.21838062 5.09301554,9.05743945 5.17193782,8.89367474 C5.2508601,8.72991003 5.3466943,8.59720415 5.45944041,8.49555709 L7.70872539,6.24238062 C7.86656995,6.08426298 8.04696373,6.00520415 8.24990674,6.00520415 C8.39647668,6.00520415 8.52613472,6.04755709 8.63888083,6.13226298 C8.75162694,6.21696886 8.84746114,6.32143945 8.92638342,6.44567474 L10.7359585,9.88473356 C10.8374301,10.0654394 10.8656166,10.2630865 10.8205181,10.4776747 C10.7754197,10.692263 10.6795855,10.8729689 10.5330155,11.0197924 L9.70433161,11.84991 C9.68178238,11.8724983 9.66205181,11.9092042 9.6451399,11.9600277 C9.62822798,12.0108512 9.61977202,12.0532042 9.61977202,12.0870865 C9.66487047,12.324263 9.76634197,12.5953218 9.92418653,12.900263 C10.0594819,13.1713218 10.2680622,13.5016747 10.5499275,13.8913218 C10.8317927,14.2809689 11.2320415,14.7298824 11.7506736,15.2381176 C12.2580311,15.7577024 12.7090155,16.1614118 13.1036269,16.4494671 C13.4981554,16.7373564 13.8280484,16.9492042 14.0930017,17.0847336 C14.3579551,17.220263 14.5608981,17.3021453 14.7018031,17.3302976 L14.9131468,17.3726782 C14.935696,17.3726782 14.9724214,17.3641799 15.0231019,17.3472664 C15.0738377,17.3302976 15.1104801,17.3105606 15.133057,17.2879446 L16.0970086,16.3053564 C16.3000622,16.1246782 16.5367185,16.0343253 16.8073368,16.0343253 C16.9990604,16.0343253 17.1511848,16.0681799 17.2639309,16.1359723 L17.2808152,16.1359723 L20.5447876,18.0672664 C20.7816373,18.2142007 20.9225423,18.4004983 20.9676684,18.6263806 Z" id="Path" fill="#C92935"></path>
        </g>
    </g>
</svg>