<?xml version="1.0" encoding="UTF-8"?>
<svg width="40px" height="40px" viewBox="0 0 40 40" version="1.1" xmlns="http://www.w3.org/2000/svg" xmlns:xlink="http://www.w3.org/1999/xlink">
    <!-- Generator: Sketch 53.1 (72631) - https://sketchapp.com -->
    <title>Group</title>
    <desc>Created with Sketch.</desc>
    <g id="Page-1" stroke="none" stroke-width="1" fill="none" fill-rule="evenodd">
        <g id="Group">
            <g id="quote-left"></g>
            <path d="M13.1996789,18.1819991 L8.06637236,18.1819991 C7.45523003,18.1819991 6.93567077,17.9169185 6.50785508,17.3865584 C6.0802802,16.8561983 5.86621183,16.2123033 5.86621183,15.4544753 L5.86621183,14.5457983 C5.86621183,12.5380916 6.43922799,10.8242224 7.58518005,9.40359361 C8.73105184,7.98346232 10.1137874,7.27309815 11.733146,7.27309815 L13.1996789,7.27309815 C13.5968332,7.27309815 13.9404502,7.09309412 14.2308512,6.73338458 C14.5210916,6.37347602 14.6662118,5.94749634 14.6662118,5.4550475 L14.6662118,1.81834917 C14.6662118,1.32599984 14.5210113,0.899622131 14.2308512,0.539713576 C13.9405305,0.180302544 13.5969134,0 13.1996789,0 L11.733146,0 C10.1441278,0 8.62815134,0.383889192 7.18425335,1.15057302 C5.74051589,1.91775438 4.49174359,2.95479252 3.43745485,4.26178696 C2.38324638,5.56818436 1.54695903,7.11637823 0.92819147,8.90636855 C0.309423912,10.6961599 0,12.5760029 0,14.5456988 L0,34.545251 C0,36.0612054 0.427574884,37.3483983 1.28312598,38.4094171 C2.13875734,39.4698389 3.17787588,40 4.4,40 L13.2002408,40 C14.4222847,40 15.4610821,39.4698389 16.3167938,38.4094171 C17.1721843,37.3483983 17.6,36.0612054 17.6,34.545251 L17.6,23.6366486 C17.6,22.1209928 17.1721843,20.8337998 16.3162319,19.7726815 C15.4609216,18.7123592 14.4217228,18.1819991 13.1996789,18.1819991 Z" id="Path" fill="#F54451" fill-rule="nonzero"></path>
            <path d="M38.7174518,19.7726815 C37.8620986,18.7123592 36.8231687,18.1819991 35.6007425,18.1819991 L30.4672587,18.1819991 C29.8564067,18.1819991 29.3363398,17.9169185 28.9092251,17.3865584 C28.4812274,16.8561983 28.2675496,16.2123033 28.2675496,15.4544753 L28.2675496,14.5457983 C28.2675496,12.5380916 28.8405945,10.8242224 29.9860422,9.40359361 C31.1315701,7.98346232 32.5142948,7.27309815 34.1345374,7.27309815 L35.6008228,7.27309815 C35.9980772,7.27309815 36.3419523,7.09309412 36.632127,6.73338458 C36.9221412,6.37347602 37.0678306,5.94749634 37.0678306,5.4550475 L37.0678306,1.81834917 C37.0678306,1.32599984 36.9222215,0.899622131 36.632127,0.539713576 C36.3420326,0.180302544 35.9981574,0 35.6008228,0 L34.1345374,0 C32.5445565,0 31.028825,0.383889192 29.5844532,1.15057302 C28.1408842,1.91775438 26.8924505,2.95479252 25.8381089,4.26178696 C24.7837673,5.56818436 23.9470366,7.11637823 23.3284788,8.90636855 C22.7098408,10.6961599 22.4,12.5760029 22.4,14.5456988 L22.4,34.545251 C22.4,36.0612054 22.8279977,37.3483983 23.6833509,38.4094171 C24.5387844,39.4698389 25.5777142,40 26.8000602,40 L35.6002609,40 C36.8226871,40 37.8615367,39.4698389 38.7168899,38.4094171 C39.5728853,37.3483983 40,36.0612054 40,34.545251 L40,23.6366486 C40.0000803,22.1208933 39.5728853,20.8337998 38.7174518,19.7726815 Z" id="Path" fill="#F54451" fill-rule="nonzero"></path>
        </g>
    </g>
</svg>