<?xml version="1.0" encoding="UTF-8"?>
<svg width="26px" height="22px" viewBox="0 0 26 22" version="1.1" xmlns="http://www.w3.org/2000/svg" xmlns:xlink="http://www.w3.org/1999/xlink">
    <!-- Generator: Sketch 53.2 (72643) - https://sketchapp.com -->
    <title>exclamation-mark-in-a-circle</title>
    <desc>Created with Sketch.</desc>
    <defs>
        <filter x="-22.2%" y="-18.2%" width="144.4%" height="136.4%" filterUnits="objectBoundingBox" id="filter-1">
            <feOffset dx="0" dy="0" in="SourceAlpha" result="shadowOffsetOuter1"></feOffset>
            <feGaussianBlur stdDeviation="1" in="shadowOffsetOuter1" result="shadowBlurOuter1"></feGaussianBlur>
            <feColorMatrix values="0 0 0 0 0   0 0 0 0 0   0 0 0 0 0  0 0 0 0.5 0" type="matrix" in="shadowBlurOuter1" result="shadowMatrixOuter1"></feColorMatrix>
            <feMerge>
                <feMergeNode in="shadowMatrixOuter1"></feMergeNode>
                <feMergeNode in="SourceGraphic"></feMergeNode>
            </feMerge>
        </filter>
    </defs>
    <g id="Page-1" stroke="none" stroke-width="1" fill="none" fill-rule="evenodd">
        <g id="A2" transform="translate(-1766.000000, -906.000000)" fill-rule="nonzero">
            <g id="exclamation-mark-in-a-circle" filter="url(#filter-1)" transform="translate(1779.000000, 917.000000) scale(-1, 1) rotate(90.000000) translate(-1779.000000, -917.000000) translate(1770.000000, 906.000000)">
                <path d="M17.0526035,16.0416523 C17.0526035,18.8219023 14.7144873,21.0833047 11.8411236,21.0833047 C10.1349307,21.0833047 8.53198597,20.440707 7.32693532,19.2729023 L1.20034342,13.34575 C1.03741112,13.189 0.947396468,12.9790977 0.947396468,12.7508477 C0.947396468,12.2906953 1.33392215,11.9166953 1.80948551,11.9166953 C2.10222187,11.9166953 2.39402567,11.9835977 2.65643149,12.1100977 L5.9466514,13.7014453 C6.09350807,13.772043 6.26874133,13.7646953 6.4070717,13.681293 C6.54633463,13.5978906 6.63159765,13.450293 6.63159765,13.2916953 L6.63159765,1.83334766 C6.63159765,1.32825 7.0560032,0.916695312 7.57894971,0.916695312 C8.10189621,0.916695312 8.52630177,1.32829297 8.52630177,1.83334766 L8.52630177,10.5416953 C8.52630177,10.7946953 8.73852675,11.000043 9,11.000043 C9.26147325,11.000043 9.47369823,10.7946953 9.47369823,10.5416953 L9.47369823,6.41669531 C9.47369823,5.91159766 9.89810379,5.50004297 10.4210503,5.50004297 C10.9439968,5.50004297 11.3684024,5.91164062 11.3684024,6.41669531 L11.3684024,10.5416953 C11.3684024,10.7946953 11.5806273,11.000043 11.8421006,11.000043 C12.1035738,11.000043 12.3157988,10.7946953 12.3157988,10.5416953 L12.3157988,7.33334766 C12.3157988,6.82825 12.7402044,6.41669531 13.2631509,6.41669531 C13.7860974,6.41669531 14.2105029,6.82829297 14.2105029,7.33334766 L14.2105029,10.5416953 C14.2105029,10.7946953 14.4227279,11.000043 14.6842012,11.000043 C14.9456744,11.000043 15.1578994,10.7946953 15.1578994,10.5416953 L15.1578994,8.25 C15.1578994,7.74490234 15.582305,7.33334766 16.1052515,7.33334766 C16.628198,7.33334766 17.0526035,7.74494531 17.0526035,8.25 L17.0526035,16.0416523 L17.0526035,16.0416523 Z" id="Path" fill="#F9BE02"></path>
                <path d="M16.1052515,6.41665234 C15.7158837,6.41665234 15.3530274,6.53125 15.0517647,6.7265 C14.792201,6.01334766 14.0882926,5.5 13.2631509,5.5 C12.8737831,5.5 12.5109268,5.61459766 12.2096641,5.80984766 C11.9501004,5.09669531 11.246192,4.58334766 10.4210503,4.58334766 C10.0762236,4.58334766 9.75222409,4.67319531 9.47369823,4.82994531 L9.47369823,1.83334766 C9.47369823,0.82225 8.62391016,0 7.57894971,0 C6.53398925,0 5.68420118,0.82225 5.68420118,1.83334766 L5.68420118,12.5500977 L3.07990447,11.2896953 C2.68769459,11.0999023 2.24810157,11 1.80948551,11 C0.81097564,11 0,11.7855977 0,12.7563477 C0,13.22475 0.188511203,13.6638477 0.530540246,13.99475 L6.65619958,19.9219023 C8.04030257,21.2620977 9.88296072,22 11.8421006,22 C15.2374782,22 18,19.327 18,16.0416523 L18,8.25 C18,7.23890234 17.1502119,6.41665234 16.1052515,6.41665234 Z" id="Path" fill="#60B4AF"></path>
            </g>
        </g>
    </g>
</svg>