<?xml version="1.0" encoding="UTF-8"?>
<svg width="18px" height="18px" viewBox="0 0 18 18" version="1.1" xmlns="http://www.w3.org/2000/svg" xmlns:xlink="http://www.w3.org/1999/xlink">
    <!-- Generator: Sketch 53.2 (72643) - https://sketchapp.com -->
    <title>telephone-hover</title>
    <desc>Created with Sketch.</desc>
    <g id="Page-1" stroke="none" stroke-width="1" fill="none" fill-rule="evenodd">
        <g id="Artboard" transform="translate(-725.000000, -803.000000)" fill="#F54451" fill-rule="nonzero">
            <path d="M742.596473,817.237133 L739.816654,814.450704 C739.262965,813.897989 738.346046,813.914782 737.773069,814.489265 L736.372584,815.892612 C736.284103,815.843737 736.19252,815.792684 736.096231,815.738522 C735.211839,815.247382 734.001399,814.574215 732.727662,813.296659 C731.45015,812.016408 730.777884,810.801358 730.286355,809.914393 C730.234487,809.820425 730.184791,809.729827 730.135715,809.643789 L731.075646,808.703127 L731.537752,808.239405 C732.111608,807.664093 732.127432,806.745356 731.575036,806.191034 L728.795217,803.404295 C728.242822,802.850751 727.325489,802.867544 726.751632,803.442856 L725.968184,804.232589 L725.989593,804.253891 C725.726892,804.589852 725.507372,804.977333 725.344011,805.395186 C725.193424,805.792929 725.099668,806.172479 725.056799,806.552807 C724.689741,809.602688 726.080297,812.390049 729.854088,816.172442 C735.070612,821.400424 739.274445,821.005479 739.455802,820.986199 C739.850784,820.938878 740.229321,820.844288 740.614013,820.694552 C741.027301,820.532739 741.413647,820.313032 741.748642,820.050306 L741.765759,820.065544 L742.559447,819.286592 C743.132114,818.711383 743.14861,817.792335 742.596473,817.237133 Z" id="telephone-hover"></path>
        </g>
    </g>
</svg>