<?xml version="1.0" encoding="UTF-8"?>
<svg width="18px" height="18px" viewBox="0 0 18 18" version="1.1" xmlns="http://www.w3.org/2000/svg" xmlns:xlink="http://www.w3.org/1999/xlink">
    <!-- Generator: Sketch 53.2 (72643) - https://sketchapp.com -->
    <title>telephone</title>
    <desc>Created with Sketch.</desc>
    <g id="Page-1" stroke="none" stroke-width="1" fill="none" fill-rule="evenodd">
        <g id="Artboard" transform="translate(-853.000000, -803.000000)" fill-rule="nonzero" stroke="#F54451" stroke-width="1.62496">
            <path d="M870.020727,817.810405 L867.24265,815.02572 C867.011076,814.794554 866.60859,814.802079 866.348165,815.063189 L864.5154,816.899699 L863.979731,816.603802 C863.888453,816.553381 863.795005,816.501279 863.701771,816.448822 C862.155024,815.589847 861.25888,814.980214 860.152537,813.870553 C859.043955,812.759594 858.439965,811.867779 857.575041,810.307021 C857.498464,810.168029 857.466214,810.109882 857.429971,810.046341 L857.122875,809.507949 L857.560982,809.069502 L858.500134,808.129622 L858.962514,807.665623 C859.224279,807.403194 859.231543,806.997368 858.999813,806.76483 L856.220111,803.978208 C855.989895,803.747514 855.587815,803.755031 855.328433,804.015067 L854.758453,804.589618 L854.629634,804.754362 C854.415649,805.028023 854.235366,805.346612 854.103856,805.682867 C853.977155,806.017518 853.899395,806.331274 853.863458,806.64989 C853.531895,809.404847 854.813552,811.974644 858.429228,815.598563 C860.627877,817.802041 862.776967,819.128654 864.79081,819.773235 C865.491001,819.997349 866.124363,820.121175 866.680375,820.16772 C867.013402,820.195598 867.24397,820.191661 867.359154,820.179488 C867.688105,820.140078 868.000021,820.061683 868.3178,819.937992 C868.657269,819.805082 868.974541,819.624863 869.247247,819.410989 L869.374318,819.311331 L869.983666,818.713355 C870.245144,818.450716 870.252608,818.043992 870.020727,817.810405 Z M870.020727,817.810405 C870.02061,817.810287 870.020492,817.810168 870.020375,817.81005 L870.021281,817.81096 L870.020727,817.810405 Z" id="telephone"></path>
        </g>
    </g>
</svg>