<?xml version="1.0" encoding="UTF-8"?>
<svg width="26px" height="29px" viewBox="0 0 26 29" version="1.1" xmlns="http://www.w3.org/2000/svg" xmlns:xlink="http://www.w3.org/1999/xlink">
    <!-- Generator: Sketch 53.2 (72643) - https://sketchapp.com -->
    <title>User icon</title>
    <desc>Created with Sketch.</desc>
    <g id="Page-1" stroke="none" stroke-width="1" fill="none" fill-rule="evenodd">
        <g id="A0" transform="translate(-1262.000000, -1024.000000)">
            <g id="User-icon" transform="translate(1262.000000, 1024.000000)">
                <rect id="Rectangle" stroke="#8EE1DC" stroke-width="0.513174" fill="#8EE1DC" x="0.256587" y="0.256587" width="25.486826" height="28.486826" rx="0.827699993"></rect>
                <path d="M6.5,20.7210747 C6.5,20.7210747 6.5,19.7942591 6.5,19.6711663 C6.5,18.31232 8.5608565,17.0765659 10.812171,16.6421212 C10.812171,16.6421212 11.5007513,16.2728426 11.3127343,15.5922128 C10.6241546,14.7281501 10.4361382,13.8013345 10.4361382,13.8013345 C10.3116077,13.7385817 10.1235913,13.6154888 9.9990607,13.492396 C9.81104433,13.2437975 9.56198316,12.5028276 9.62546957,11.9477034 C9.68651374,11.4529192 9.81104433,11.6387649 9.87453012,11.5156727 C9.37396679,10.4030109 9.62546957,8.98141113 10.1870771,7.93150274 C11.3737791,5.89202599 13.8741548,6.50990302 14.2501875,7.25087289 C16.6260326,6.81884153 16.5625468,10.5261037 16.1889557,11.4529192 C16.1889557,11.4529192 16.3745304,11.5156727 16.3745304,12.3797348 C16.3134856,13.3065503 15.5638618,13.8616745 15.5638618,13.8616745 C15.5638618,14.110273 15.2513148,14.8512429 14.7507508,15.5318734 C14.3136739,16.3959355 15.1878284,16.5817811 15.1878284,16.5817811 C17.4391435,17.0138125 19.5,18.2495666 19.5,19.6084135 C19.5,19.7315063 19.5,20.6583218 19.5,20.6583218 C19.5,21.5247974 16.1254693,22.4516129 12.9999997,22.4516129 C9.93801653,22.4516129 6.5,22.1426744 6.5,20.7210747 Z" id="Path" fill="#C92935" fill-rule="nonzero"></path>
            </g>
        </g>
    </g>
</svg>